HIERARCHY
ROOT Hips
{
	OFFSET 0.000000 0.000000 0.000000
	CHANNELS 6 Xposition Yposition Zposition Zrotation Yrotation Xrotation 
	JOINT LowerBack
	{
		OFFSET 0.000000 0.000000 0.000000
		CHANNELS 3 Zrotation Yrotation Xrotation
		JOINT Spine
		{
			OFFSET 0.028270 2.035590 -0.193380
			CHANNELS 3 Zrotation Yrotation Xrotation
			JOINT Spine1
			{
				OFFSET 0.056720 2.048850 -0.042750
				CHANNELS 3 Zrotation Yrotation Xrotation
				JOINT Neck
				{
					OFFSET 0.000000 0.000000 0.000000
					CHANNELS 3 Zrotation Yrotation Xrotation
					JOINT Neck1
					{
						OFFSET -0.054170 1.746240 0.172020
						CHANNELS 3 Zrotation Yrotation Xrotation
						JOINT Head
						{
							OFFSET 0.104070 1.761360 -0.123970
							CHANNELS 3 Zrotation Yrotation Xrotation
							End Site
							{
								OFFSET 0.000000 0.000000 0.000000
							}
						}
					}
				}
				JOINT LeftShoulder
				{
					OFFSET 0.000000 0.000000 0.000000
					CHANNELS 3 Zrotation Yrotation Xrotation
					JOINT LeftArm
					{
						OFFSET 3.362410 1.200890 -0.311210
						CHANNELS 3 Zrotation Yrotation Xrotation
						JOINT LeftForeArm
						{
							OFFSET 4.983000 -0.000000 -0.000000
							CHANNELS 3 Zrotation Yrotation Xrotation
							JOINT LeftHand
							{
								OFFSET 3.483560 -0.000000 -0.000000
								CHANNELS 3 Zrotation Yrotation Xrotation
								JOINT LeftFingerBase
								{
									OFFSET 0.000000 0.000000 0.000000
									CHANNELS 3 Zrotation Yrotation Xrotation
									JOINT LeftHandIndex1
									{
										OFFSET 0.715260 -0.000000 -0.000000
										CHANNELS 3 Zrotation Yrotation Xrotation
										End Site
										{
											OFFSET 0.000000 0.000000 0.000000
										}
									}
								}
								JOINT LThumb
								{
									OFFSET 0.000000 0.000000 0.000000
									CHANNELS 3 Zrotation Yrotation Xrotation
									End Site
									{
										OFFSET 0.000000 0.000000 0.000000
									}
								}
							}
						}
					}
				}
				JOINT RightShoulder
				{
					OFFSET 0.000000 0.000000 0.000000
					CHANNELS 3 Zrotation Yrotation Xrotation
					JOINT RightArm
					{
						OFFSET -3.136600 1.374050 -0.404650
						CHANNELS 3 Zrotation Yrotation Xrotation
						JOINT RightForeArm
						{
							OFFSET -5.241900 -0.000000 -0.000000
							CHANNELS 3 Zrotation Yrotation Xrotation
							JOINT RightHand
							{
								OFFSET -3.444170 -0.000000 -0.000000
								CHANNELS 3 Zrotation Yrotation Xrotation
								JOINT RightFingerBase
								{
									OFFSET 0.000000 0.000000 0.000000
									CHANNELS 3 Zrotation Yrotation Xrotation
									JOINT RightHandIndex1
									{
										OFFSET -0.622530 -0.000000 -0.000000
										CHANNELS 3 Zrotation Yrotation Xrotation
										End Site
										{
											OFFSET 0.000000 0.000000 0.000000
										}
									}
								}
								JOINT RThumb
								{
									OFFSET 0.000000 0.000000 0.000000
									CHANNELS 3 Zrotation Yrotation Xrotation
									End Site
									{
										OFFSET 0.000000 0.000000 0.000000
									}
								}
							}
						}
					}
				}
			}
		}
	}
}
}
MOTION
Frames: 7
Frame Time: 0.008333
9.181115 16.964693 -2.212216 -171.514552 65.787385 -154.106839 -4.733993 -0.121120 -2.324548 -1.516731 0.162867 -3.346481 -5.269356 0.193898 0.222716 6.546506 -10.274833 -7.039788 -2.155027 -0.168719 0.134443 0.000000 0.000000 0.000000 0.722115 14.411126 0.143213 -65.134465 9.626214 20.025889 -179.387133 -79.302511 179.982595 3.864690 1.645420 0.049663 -0.110225 0.290237 0.000000 0.000000 0.000000 0.000000 0.000000 0.000000 0.000000 3.378312 -3.689566 -0.342890 55.682490 23.836048 29.469900 179.236129 76.381116 -179.993757 0.241864 3.998156 0.009341 0.030527 -0.483841 -0.000000 0.000000 0.000000 0.000000 0.000000 0.000000 0.000000 
9.376638 16.876936 -2.301066 -170.944784 65.478734 -153.659911 -4.907080 -0.207783 -2.406082 -1.542041 0.087798 -3.365206 -5.251748 0.116409 0.197358 7.112032 -10.262543 -7.035643 -2.115819 -0.166019 0.138504 0.000000 0.000000 0.000000 0.665269 14.273174 0.150485 -65.624972 10.175167 19.321296 -179.413993 -79.398127 179.982111 3.981727 1.533485 0.046948 -0.106677 0.292710 0.000000 0.000000 0.000000 0.000000 0.000000 0.000000 0.000000 3.728558 -3.681097 -0.240969 54.796027 24.609316 28.893417 179.175927 75.761300 -179.992376 0.398257 4.269234 0.016425 0.028493 -0.498859 -0.000000 0.000000 0.000000 0.000000 0.000000 0.000000 0.000000 
9.566717 16.789759 -2.391080 -170.436399 65.196369 -153.298328 -5.049838 -0.303528 -2.438721 -1.560268 0.002405 -3.374602 -5.234280 0.028869 0.167476 7.642979 -10.199318 -7.013525 -2.075674 -0.163328 0.145968 0.000000 0.000000 0.000000 0.499594 14.159766 0.172707 -66.091430 10.553099 18.622431 -179.445635 -79.643874 179.981035 4.197895 1.477332 0.047151 -0.106413 0.293955 0.000000 0.000000 0.000000 0.000000 0.000000 0.000000 0.000000 4.033102 -3.634156 -0.156870 54.027685 25.339248 28.265266 179.126161 75.287852 -179.990799 0.592005 4.543866 0.026096 0.024431 -0.513024 -0.000000 0.000000 0.000000 0.000000 0.000000 0.000000 0.000000 
9.750919 16.705152 -2.482651 -169.980832 64.945709 -153.026366 -5.151515 -0.399201 -2.410107 -1.569941 -0.084805 -3.372580 -5.217421 -0.060005 0.132542 8.123780 -10.092159 -6.971668 -2.032433 -0.160516 0.157345 0.000000 0.000000 0.000000 0.224173 14.075431 0.208275 -66.529601 10.727077 17.958687 -179.483529 -80.070960 179.979209 4.544009 1.491445 0.051374 -0.110119 0.293659 0.000000 0.000000 0.000000 0.000000 0.000000 0.000000 0.000000 4.264368 -3.553184 -0.097037 53.419939 25.993693 27.601250 179.089763 74.966455 -179.989112 0.816554 4.799681 0.038049 0.018380 -0.525509 -0.000000 0.000000 0.000000 0.000000 0.000000 0.000000 0.000000 
9.929262 16.625437 -2.576034 -169.594079 64.730626 -152.860369 -5.217056 -0.487766 -2.319303 -1.573079 -0.166530 -3.359377 -5.203797 -0.142802 0.092190 8.548822 -9.952069 -6.909537 -1.985854 -0.157600 0.172904 0.000000 0.000000 0.000000 -0.152353 14.016033 0.254118 -66.932378 10.679357 17.356379 -179.528842 -80.698627 179.976506 5.045721 1.586681 0.061116 -0.118154 0.291568 0.000000 0.000000 0.000000 0.000000 0.000000 0.000000 0.000000 4.415506 -3.446985 -0.064359 53.005013 26.543128 26.921445 179.068355 74.799051 -179.987427 1.059151 5.013540 0.051691 0.010781 -0.535552 -0.000000 0.000000 0.000000 0.000000 0.000000 0.000000 0.000000 
10.102356 16.553154 -2.671127 -169.312700 64.553837 -152.822531 -5.261937 -0.564961 -2.178402 -1.573840 -0.237687 -3.337531 -5.197180 -0.214462 0.047384 8.921999 -9.791961 -6.828222 -1.937259 -0.154704 0.192578 0.000000 0.000000 0.000000 -0.612074 13.974114 0.306310 -67.293089 10.405650 16.839485 -179.582153 -81.533717 179.972849 5.719172 1.769894 0.078472 -0.130488 0.287529 0.000000 0.000000 0.000000 0.000000 0.000000 0.000000 0.000000 4.497603 -3.327128 -0.059170 52.802844 26.964077 26.246893 179.061964 74.777541 -179.985875 1.300678 5.165756 0.065627 0.002404 -0.542642 -0.000000 0.000000 0.000000 0.000000 0.000000 0.000000 0.000000 
10.270915 16.490672 -2.768201 -169.156918 64.412598 -152.913093 -5.301370 -0.628298 -2.007358 -1.576359 -0.295100 -3.311032 -5.202037 -0.271900 -0.000706 9.252472 -9.624948 -6.729718 -1.889133 -0.152037 0.216128 0.000000 0.000000 0.000000 -1.133611 13.937914 0.360349 -67.607293 9.918237 16.424929 -179.643215 -82.566856 179.968233 6.567734 2.043372 0.106138 -0.146659 0.281516 0.000000 0.000000 0.000000 0.000000 0.000000 0.000000 0.000000 4.533482 -3.205851 -0.079203 52.816430 27.239432 25.597462 179.069651 74.890262 -179.984601 1.517413 5.242100 0.077865 -0.005786 -0.546509 -0.000000 0.000000 0.000000 0.000000 0.000000 0.000000 0.000000 
